<svg xmlns="http://www.w3.org/2000/svg" viewBox="0 0 1600 900" fill="none" aria-hidden="true">
  <defs>
    <linearGradient id="pearl" x1="58" y1="12" x2="1510" y2="897" gradientUnits="userSpaceOnUse"><stop stop-color="#FBFDFF"/><stop offset=".48" stop-color="#F4F2FC"/><stop offset="1" stop-color="#EEF9FD"/></linearGradient>
    <radialGradient id="cyanGlow" cx="0" cy="0" r="1" gradientTransform="matrix(510 0 0 360 166 586)" gradientUnits="userSpaceOnUse"><stop stop-color="#58EAF0" stop-opacity=".34"/><stop offset=".5" stop-color="#8FF2F5" stop-opacity=".12"/><stop offset="1" stop-color="#A4EEF2" stop-opacity="0"/></radialGradient>
    <radialGradient id="goldGlow" cx="0" cy="0" r="1" gradientTransform="matrix(340 0 0 260 1165 282)" gradientUnits="userSpaceOnUse"><stop stop-color="#E6B55E" stop-opacity=".18"/><stop offset="1" stop-color="#F6D79D" stop-opacity="0"/></radialGradient>
    <linearGradient id="ray" x1="-80" y1="705" x2="1258" y2="217" gradientUnits="userSpaceOnUse"><stop stop-color="#9AF4F7" stop-opacity="0"/><stop offset=".28" stop-color="#49DFE9" stop-opacity=".65"/><stop offset=".67" stop-color="#0788C2" stop-opacity=".38"/><stop offset="1" stop-color="#E3AD52" stop-opacity="0"/></linearGradient>
    <linearGradient id="glass" x1="860" y1="80" x2="1180" y2="400" gradientUnits="userSpaceOnUse"><stop stop-color="#FFFFFF" stop-opacity=".7"/><stop offset=".35" stop-color="#89EDF3" stop-opacity=".13"/><stop offset="1" stop-color="#006DAB" stop-opacity=".04"/></linearGradient>
    <filter id="blur"><feGaussianBlur stdDeviation="22"/></filter>
    <filter id="spark"><feGaussianBlur stdDeviation="2"/></filter>
  </defs>
  <path fill="url(#pearl)" d="M0 0h1600v900H0z"/>
  <ellipse cx="166" cy="586" rx="510" ry="360" fill="url(#cyanGlow)"/>
  <ellipse cx="1165" cy="282" rx="340" ry="260" fill="url(#goldGlow)"/>
  <ellipse cx="1040" cy="244" rx="184" ry="145" fill="url(#glass)" stroke="#73DFEA" stroke-opacity=".2"/>
  <ellipse cx="1040" cy="244" rx="154" ry="118" stroke="white" stroke-opacity=".52"/>
  <g stroke="url(#ray)" stroke-linecap="round">
    <path d="M-160 718C130 474 302 736 570 520 806 330 951 178 1328 253" stroke-width="2.2"/>
    <path d="M-104 760C165 534 338 766 617 532 844 343 1007 229 1378 303" opacity=".68" stroke-width="1.6"/>
    <path d="M18 813C237 596 414 752 676 534 890 355 1051 270 1344 335" opacity=".42"/>
    <path d="M-35 622C207 421 344 620 568 450 774 294 904 173 1197 201" opacity=".3"/>
  </g>
  <g fill="#F2C66E"><circle cx="212" cy="597" r="3"/><circle cx="624" cy="514" r="2.5"/><circle cx="950" cy="279" r="3"/><circle cx="1208" cy="267" r="2"/></g>
  <g fill="white" filter="url(#spark)" opacity=".92"><circle cx="212" cy="597" r="6"/><circle cx="624" cy="514" r="5"/><circle cx="950" cy="279" r="6"/></g>
  <path d="M1375 82h2v31h-2zM1361 97h31v2h-31z" fill="#E7B65E" opacity=".55"/>
  <path d="M468 304h1.6v24H468zM457 315h24v1.6h-24z" fill="#FFFFFF" opacity=".8"/>
</svg>
